<?xml version="1.0" standalone="no"?>
<!DOCTYPE svg PUBLIC "-//W3C//DTD SVG 20010904//EN"
 "http://www.w3.org/TR/2001/REC-SVG-20010904/DTD/svg10.dtd">
<svg version="1.0" xmlns="http://www.w3.org/2000/svg"
 width="1280.000000pt" height="884.000000pt" viewBox="0 0 1280.000000 884.000000"
 preserveAspectRatio="xMidYMid meet">
<metadata>
Created by potrace 1.15, written by Peter Selinger 2001-2017
</metadata>
<g transform="translate(0.000000,884.000000) scale(0.100000,-0.100000)"
fill="#000000" stroke="none">
<path d="M6155 8809 c-33 -17 -914 -502 -1958 -1076 -1044 -574 -1904 -1046
-1912 -1049 -13 -5 -15 109 -17 841 l-3 847 -33 29 -32 29 -681 0 -681 0 -34
-34 -34 -34 0 -1234 0 -1233 -347 -215 c-255 -158 -352 -223 -364 -245 -15
-26 -20 -116 -38 -703 -21 -640 -21 -673 -5 -702 24 -40 66 -56 113 -43 20 5
185 93 366 196 l330 186 5 -2147 c4 -1653 8 -2152 17 -2168 7 -12 23 -29 37
-38 24 -15 428 -16 5407 -14 l5381 3 29 33 29 32 0 2115 c0 1163 2 2115 5
2115 2 0 146 -72 319 -160 223 -114 324 -160 347 -160 37 0 70 22 88 57 8 15
11 219 11 695 0 623 -1 675 -18 702 -13 22 -667 382 -3111 1713 -1702 927
-3108 1687 -3125 1690 -22 3 -48 -5 -91 -28z m2282 -1386 c1209 -658 2572
-1400 3028 -1648 l830 -452 3 -537 c1 -295 0 -536 -3 -536 -3 0 -149 72 -325
160 -198 100 -330 160 -349 160 -20 0 -40 -10 -60 -31 l-31 -30 -2 -2152 -3
-2152 -5242 -3 -5243 -2 0 2167 c0 1491 -3 2180 -11 2206 -13 47 -60 80 -104
73 -17 -2 -183 -90 -370 -195 -186 -105 -341 -189 -343 -186 -2 2 1 136 7 297
6 161 14 400 17 530 l7 238 286 177 c157 97 315 195 351 216 36 22 70 47 75
56 6 10 12 447 15 1231 l5 1215 545 0 545 0 5 -888 5 -889 28 -24 c17 -15 41
-24 61 -24 24 0 533 276 2047 1109 1108 610 2017 1110 2021 1110 4 1 997 -537
2205 -1196z"/>
<path d="M6272 8128 c-12 -23 -19 -45 -15 -49 5 -4 619 -355 1366 -780 747
-426 1351 -776 1341 -777 -15 -4 -16 -32 -10 -395 3 -216 9 -661 12 -989 l7
-598 48 0 49 0 -1 298 c0 163 -4 599 -8 967 -5 369 -8 671 -6 673 2 2 1504
-849 1523 -863 3 -3 83 -1708 80 -1710 -2 -1 -262 1 -578 6 -316 4 -924 13
-1350 19 -1474 20 -2218 30 -2930 40 -393 5 -1055 14 -1470 20 -415 6 -1052
15 -1415 20 -363 5 -751 10 -862 10 l-203 0 0 -49 0 -48 478 -7 c1233 -17
1915 -27 2602 -36 410 -6 1069 -15 1465 -20 1489 -21 2202 -30 2920 -40 407
-5 896 -12 1086 -16 l346 -6 7 64 c6 55 -53 1485 -70 1694 l-5 70 -31 -4 -30
-5 17 33 c14 27 15 35 3 45 -12 10 -4334 2475 -4340 2475 -2 0 -13 -19 -26
-42z"/>
<path d="M3985 6924 c-1221 -674 -2224 -1229 -2228 -1234 -6 -5 14 -51 39 -88
2 -4 4426 2439 4442 2453 11 10 10 20 -7 54 -12 22 -23 41 -24 41 -1 0 -1001
-552 -2222 -1226z"/>
<path d="M3390 6272 c0 -15 -14 -423 -30 -907 -16 -484 -30 -886 -30 -892 0
-9 16 -13 49 -13 l49 0 6 108 c10 167 59 1713 55 1716 -2 2 -25 6 -51 9 -47 6
-48 6 -48 -21z"/>
<path d="M1740 4776 c0 -457 4 -807 9 -810 5 -3 14 1 21 9 7 8 25 15 41 15
l29 0 0 795 0 795 -50 0 -50 0 0 -804z"/>
<path d="M9125 4525 c-10 -25 -16 -47 -14 -49 6 -6 1448 -546 1457 -546 4 0
15 21 24 46 16 44 16 45 -6 53 -68 26 -1414 531 -1427 536 -13 5 -21 -4 -34
-40z"/>
<path d="M3245 4524 c-5 -2 -289 -65 -630 -139 -340 -75 -621 -138 -623 -140
-7 -7 10 -95 19 -95 15 0 1292 280 1297 285 2 1 -2 23 -9 49 -11 44 -23 53
-54 40z"/>
<path d="M3460 4440 l0 -50 2770 0 2770 0 0 50 0 50 -2770 0 -2770 0 0 -50z"/>
<path d="M1935 3571 c-6 -6 -41 -11 -80 -13 l-70 -3 -3 -63 -3 -63 959 7 959
7 6 -189 c4 -104 12 -387 17 -629 6 -242 13 -473 16 -512 5 -69 7 -73 30 -73
22 0 24 -4 24 -47 l0 -46 263 7 c144 4 420 11 612 16 193 6 692 19 1110 30
1599 42 2308 61 2820 75 291 8 533 11 536 7 3 -4 327 -353 719 -777 392 -424
725 -783 739 -798 l26 -28 -505 6 c-278 3 -1223 10 -2100 15 -1781 11 -3949
26 -5297 36 l-893 7 0 41 1 41 22 -27 22 -27 25 19 c15 12 41 20 67 20 48 0
68 17 26 22 -23 2 126 107 857 602 487 329 891 604 898 611 12 10 9 19 -13 53
l-27 41 -181 -124 c-804 -545 -1691 -1144 -1692 -1142 -2 4 13 2186 18 2458
l4 256 -51 -5 c-28 -2 -52 -5 -53 -6 -4 -3 -21 -2876 -16 -2902 l5 -32 751 -6
c414 -4 1432 -11 2262 -16 2957 -20 4431 -30 5243 -36 l822 -7 0 52 c0 49 -1
51 -28 51 -24 0 -134 115 -812 845 -474 511 -789 844 -797 841 -7 -3 -13 2
-13 11 0 14 -21 15 -217 9 -253 -7 -663 -18 -1718 -46 -418 -11 -926 -24
-1130 -30 -203 -6 -712 -19 -1130 -30 -418 -10 -842 -22 -941 -26 l-182 -6 -6
133 c-3 74 -10 319 -16 544 -5 226 -13 479 -16 563 l-6 152 919 0 c506 0 1696
3 2645 7 l1725 6 6 -74 c4 -41 9 -309 13 -597 l7 -523 51 3 c39 2 51 7 50 19
-1 9 -5 275 -9 592 l-7 577 806 0 806 0 0 53 0 52 -1617 -3 c-890 -2 -2884 -6
-4431 -10 -1546 -4 -2812 -4 -2812 0 0 3 5 8 12 10 6 2 8 10 4 16 -9 14 -19
15 -31 3z"/>
<path d="M10766 3273 c2 -71 9 -342 14 -603 10 -468 25 -1189 38 -1775 l7
-300 50 0 50 0 -3 130 c-1 72 -7 348 -12 615 -6 267 -15 674 -20 905 -5 231
-13 585 -16 788 l-7 367 -53 0 -53 0 5 -127z"/>
<path d="M2585 3310 c-172 -23 -292 -35 -331 -32 l-62 4 -6 -68 c-4 -38 -20
-283 -36 -544 -16 -261 -33 -519 -36 -572 -7 -95 -6 -98 14 -98 15 0 26 -11
37 -36 12 -29 18 -33 32 -26 53 28 703 322 712 322 6 0 13 10 15 23 6 26 96
914 96 940 0 14 -9 17 -50 17 -45 0 -50 -2 -51 -22 -1 -45 -35 -348 -40 -352
-10 -10 -281 -77 -287 -71 -4 4 -8 98 -10 209 l-3 202 167 22 c93 13 169 24
170 25 1 1 0 23 -3 50 -7 57 26 56 -328 7z m-273 -135 c3 -3 34 -1 69 5 110
17 100 40 97 -207 l-3 -217 -110 -27 c-60 -15 -110 -27 -110 -26 -1 2 29 460
36 537 1 16 4 10 8 -17 4 -24 10 -45 13 -48z m558 -432 c0 -38 -43 -400 -48
-404 -9 -8 -605 -280 -607 -276 -2 3 34 548 38 577 3 23 4 23 12 -8 5 -23 12
-31 24 -28 42 13 181 46 190 46 7 0 11 -65 13 -192 l3 -193 50 0 50 0 0 209 0
209 120 32 c127 34 155 39 155 28z"/>
<path d="M9623 3121 c-4 -15 -13 -21 -34 -21 -20 0 -29 -5 -29 -15 0 -23 -48
-649 -55 -716 -5 -53 -4 -57 17 -63 13 -3 122 -100 243 -215 l220 -210 31 30
c18 17 33 26 35 21 2 -5 25 -12 51 -16 l47 -7 5 33 c8 47 96 879 96 906 0 15
-6 22 -19 22 -11 0 -18 6 -17 16 1 13 -66 44 -269 129 -333 138 -315 132 -322
106z m283 -200 c154 -64 238 -104 237 -113 0 -7 -7 -70 -13 -141 -15 -148 -1
-141 -142 -71 -61 31 -88 50 -88 62 0 9 7 64 14 122 8 58 14 106 13 106 -1 1
-23 5 -49 8 -55 8 -52 14 -67 -117 -5 -43 -11 -81 -14 -83 -3 -3 -39 12 -82
33 l-76 38 6 95 c6 98 14 160 19 160 2 0 111 -45 242 -99z m-190 -306 c60 -27
74 -38 70 -52 -2 -10 -12 -83 -22 -161 -19 -161 -19 -162 49 -162 26 0 37 4
37 15 0 21 32 269 35 273 1 1 50 -20 109 -47 77 -36 106 -55 106 -68 1 -51
-45 -453 -51 -451 -4 2 -103 95 -221 208 l-213 205 2 75 c2 90 13 200 19 200
3 0 39 -16 80 -35z"/>
<path d="M12650 3790 c0 -27 5 -50 10 -50 6 0 10 23 10 50 0 28 -4 50 -10 50
-5 0 -10 -22 -10 -50z"/>
<path d="M12680 2440 c0 -5 23 -10 50 -10 28 0 50 5 50 10 0 6 -22 10 -50 10
-27 0 -50 -4 -50 -10z"/>
<path d="M12270 1440 c0 -5 23 -10 50 -10 28 0 50 5 50 10 0 6 -22 10 -50 10
-27 0 -50 -4 -50 -10z"/>
<path d="M12730 734 c0 -34 4 -53 10 -49 6 3 10 28 10 56 0 27 -4 49 -10 49
-5 0 -10 -25 -10 -56z"/>
</g>
</svg>
